<?xml version="1.0"?>
<!DOCTYPE svg PUBLIC "-//W3C//DTD SVG 1.1//EN"
"http://www.w3.org/Graphics/SVG/1.1/DTD/svg11.dtd">

<svg version="1.1" xmlns="http://www.w3.org/2000/svg"
xmlns:xlink="http://www.w3.org/1999/xlink"
width="800px" height="800px"
viewBox="-4 -4 8 6"
preserveAspectRatio="xMidYMid">
<defs>
    <g id="blade">
        <polygon points="0.5,0 0.42,0.27 0.20,0.45 -0.07,0.49 -0.32,0.37 -0.47,0.14 -0.47,-0.14 -0.32,-0.37 -0.07,-0.49 0.20,-0.45 0.42,-0.27" 
        fill-opacity="0" stroke="black"  stroke-width="0.015"/>
        <line x1="0.5" y1="0" x2="0" y2="0" stroke-width="0.015" stroke="black"/>
        <line x1="0.42" y1="0.27" x2="0" y2="0" stroke-width="0.015" stroke="black"/>
        <line x1="0.20" y1="0.45" x2="0" y2="0" stroke-width="0.015" stroke="black"/>
        <line x1="-0.07" y1="0.49" x2="0" y2="0" stroke-width="0.015" stroke="black"/>
        <line x1="-0.32" y1="0.37" x2="0" y2="0" stroke-width="0.015" stroke="black"/>
        <line x1="-0.47" y1="0.14" x2="0" y2="0" stroke-width="0.015" stroke="black"/>
        <line x1="-0.47" y1="-0.14" x2="0" y2="0" stroke-width="0.015" stroke="black"/>
        <line x1="-0.32" y1="-0.37" x2="0" y2="0" stroke-width="0.015" stroke="black"/>
        <line x1="-0.07" y1="-0.49" x2="0" y2="0" stroke-width="0.015" stroke="black"/>
        <line x1="0.20" y1="-0.45" x2="0" y2="0" stroke-width="0.015" stroke="black"/>
        <line x1="0.42" y1="-0.27" x2="0" y2="0" stroke-width="0.015" stroke="black"/>
    </g>
</defs>
<defs>
    <g id="animBlade">
        <use xlink:href = "#blade">
            <animateTransform attributeName = "transform" type = "rotate"
            from = "0" to = "360" dur = "5s" repeatCount="indefinite" />
        </use>
    </g>
</defs>
<defs>
    <g id="windMillGreen">
        <use xlink:href = "#animBlade" transform = "translate(1.5,0.4) scale(1.3,1.3)"/>
        <use xlink:href = "#animBlade" transform = "translate(-1.5,-0.4) scale(1.3,1.3)"/>
        <rect x="-0.5" y="-0.5" width="1" height="1" transform = "rotate(15) scale(1.65,0.1) " fill-opacity="1" stroke="red" />
        <polygon points="0,0 0.4,2.5 -0.4,2.5" fill="green" />
    </g>
</defs>
<defs>
    <g id="windMillPurple">
        <use xlink:href = "#animBlade" transform = "translate(1.5,0.4) scale(1.3,1.3)"/>
        <use xlink:href = "#animBlade" transform = "translate(-1.5,-0.4) scale(1.3,1.3)"/>
        <rect x="-0.5" y="-0.5" width="1" height="1" transform = "rotate(15) scale(1.65,0.1) " fill-opacity="1" stroke="red" />
        <polygon points="0,0 0.4,2.5 -0.4,2.5" fill="purple" />
    </g>
</defs>
<defs>
    <g id="windMillBlue">
        <use xlink:href = "#animBlade" transform = "translate(1.5,0.4) scale(1.3,1.3)"/>
        <use xlink:href = "#animBlade" transform = "translate(-1.5,-0.4) scale(1.3,1.3)"/>
        <rect x="-0.5" y="-0.5" width="1" height="1" transform = "rotate(15) scale(1.65,0.1) " fill-opacity="1" stroke="red" />
        <polygon points="0,0 0.4,2.5 -0.4,2.5" fill="blue" />
    </g>
</defs>

<rect x="-4" y="-4" width="8" height="6" fill-opacity="0" stroke="black" stroke-width="0.01" stroke-linejoin="round"/>
<use xlink:href = "#windMillGreen" transform = "translate(2.5,-3.3) scale(0.5,0.5)"/>
<use xlink:href = "#windMillPurple" transform = "translate(-2.3,-3) scale(0.7,0.7)"/>
<use xlink:href = "#windMillBlue" transform = "translate(0.6,-0.52)"/>

</svg>

